<?xml version="1.0" standalone="no"?>
<!DOCTYPE svg PUBLIC "-//W3C//DTD SVG 20010904//EN"
 "http://www.w3.org/TR/2001/REC-SVG-20010904/DTD/svg10.dtd">
<svg version="1.0" xmlns="http://www.w3.org/2000/svg"
 width="307.000000pt" height="307.000000pt" viewBox="0 0 307.000000 307.000000"
 preserveAspectRatio="xMidYMid meet">
<metadata>
Created by potrace 1.14, written by Peter Selinger 2001-2017
</metadata>
<g transform="translate(0.000000,307.000000) scale(0.100000,-0.100000)"
fill="#000000" stroke="none">
<path d="M1329 2956 c-2 -2 -31 -7 -63 -11 -33 -3 -66 -10 -75 -15 -9 -4 -19
-8 -24 -8 -6 -1 -89 -17 -132 -27 -5 -1 -23 -7 -40 -14 -131 -52 -211 -128
-244 -233 -12 -37 -13 -37 -55 -32 -53 8 -101 -13 -148 -64 -35 -38 -83 -122
-70 -122 4 0 1 -4 -5 -8 -7 -4 -14 -17 -16 -27 -1 -11 -6 -25 -9 -31 -26 -40
-28 -266 -5 -384 10 -47 20 -154 22 -240 3 -85 9 -173 15 -195 14 -59 13 -68
-7 -57 -35 20 -77 -17 -89 -80 -16 -81 2 -292 33 -391 21 -67 50 -96 90 -90
37 6 44 -4 68 -97 25 -98 63 -187 110 -261 57 -88 73 -107 185 -219 108 -107
146 -140 160 -140 6 0 10 -4 10 -9 0 -13 144 -82 205 -97 6 -2 24 -6 40 -10
71 -18 303 -7 330 16 7 6 14 7 17 5 9 -10 233 120 268 155 3 3 23 18 45 35 79
58 225 217 225 244 0 6 4 11 8 11 5 0 15 18 22 40 7 22 17 40 22 40 4 0 8 7 8
15 0 13 27 81 50 125 5 8 14 13 22 12 40 -11 50 -9 77 14 28 23 67 105 77 163
3 14 7 28 10 33 3 4 7 17 10 28 2 11 7 30 10 42 25 99 29 190 8 233 -15 33
-20 36 -51 33 -37 -4 -40 2 -17 37 9 14 13 25 10 25 -4 0 1 11 10 25 9 14 13
25 10 25 -4 0 -2 8 3 18 9 16 14 46 27 142 9 67 19 125 24 135 1 3 3 8 4 13 1
4 10 22 19 40 10 17 15 32 11 32 -4 0 -1 6 5 14 7 8 14 25 17 37 3 13 7 33 9
44 13 57 15 75 16 130 0 33 -2 72 -6 86 -5 21 -1 29 22 44 35 22 63 51 63 65
0 5 4 10 9 10 15 0 36 69 47 149 8 54 -11 53 -40 -2 -20 -38 -58 -60 -91 -53
-41 8 -49 11 -68 26 -29 22 -80 74 -97 100 -57 87 -223 270 -244 270 -4 0 -19
11 -34 25 -15 14 -32 25 -39 25 -7 0 -13 4 -13 8 0 7 -109 63 -134 69 -6 1
-37 11 -68 22 -70 24 -139 37 -248 47 -85 7 -316 14 -321 10z"/>
</g>
</svg>
