<svg width="615" height="97" viewBox="0 0 615 97" fill="none" xmlns="http://www.w3.org/2000/svg">
<path d="M81 40.5248C80.8766 63.0206 62.8556 81.0835 40.3569 80.9997C17.4747 80.9115 0.0662863 62.4428 0.000178346 40.6924C-0.0659296 17.8745 18.2548 -0.175156 40.7888 0.00128254C63.4109 0.177721 80.8854 18.4082 81 40.5248ZM40.4582 4.94597C20.8727 4.94597 4.3633 21.0019 4.96268 41.6451C5.51358 60.6034 20.9872 76.1741 40.8461 76.0506C60.1099 75.9271 76.4518 60.03 76.0067 39.6426C75.588 20.5872 60.1496 5.02977 40.4582 4.94597Z" fill="#E32126"/>
<path d="M40.3172 68.7154C38.8629 68.7021 37.4217 68.5654 36.029 68.1243C34.3984 67.6038 33.0321 66.704 32.1551 65.191C31.6747 64.3573 31.4544 63.4222 31.234 62.4959C30.4451 59.1921 30.1454 55.8354 30.2292 52.4477C30.3085 49.188 30.7492 45.9813 31.9127 42.9157C32.7809 40.622 34.0105 38.5576 35.91 36.9432C37.7875 35.3465 39.947 34.4819 42.4107 34.2967C44.7288 34.1202 46.9545 34.4731 49.1713 35.1347C51.6173 35.867 53.909 36.93 56.1126 38.1915C58.6688 39.6516 61.0751 41.3277 63.3184 43.2421C63.9134 43.7493 64.4951 44.2698 65.0592 44.8124C66.3549 46.0607 66.8265 47.5957 66.6634 49.3821C66.4916 51.2303 65.8261 52.8933 64.905 54.468C63.5828 56.7264 61.8905 58.6804 59.9689 60.4448C57.8799 62.3636 55.5794 63.978 53.0628 65.2925C50.5507 66.6069 47.9196 67.5906 45.1519 68.1993C43.94 68.4683 41.6306 68.7242 40.3261 68.7242L40.3172 68.7154Z" fill="#E32126"/>
<path d="M65.2664 30.7591C65.2708 31.2752 65.2488 31.8265 65.1298 32.3735C64.8124 33.8115 63.8208 34.9451 62.1461 35.0774C61.4586 35.1303 60.8416 34.8348 60.2334 34.579C59.2197 34.1555 58.3647 33.4806 57.5846 32.7131C55.575 30.7326 54.1779 28.3772 53.3714 25.6821C53.0144 24.4955 52.7896 23.2693 52.8822 22.0165C52.9351 21.2932 53.0496 20.5698 53.3934 19.9258C54.266 18.2893 55.8262 17.7909 57.6375 18.5231C58.5983 18.9112 59.4797 19.4538 60.2334 20.1639C62.7058 22.5062 64.3497 25.3336 65.0813 28.6727C65.2267 29.3432 65.2796 30.0313 65.2708 30.7547L65.2664 30.7591Z" fill="#E32126"/>
<path d="M47.1351 24.8661C47.1263 25.6116 46.9588 26.432 46.6062 27.1995C45.9584 28.5934 44.6627 29.1977 43.1642 28.8492C41.917 28.5625 40.8989 27.8611 39.9602 27.0495C38.1268 25.4616 36.8311 23.4811 35.8483 21.28C35.2445 19.9258 34.8831 18.5099 34.7377 17.0411C34.6275 15.9074 34.7288 14.7915 35.2533 13.7505C35.9188 12.4272 37.3247 11.8317 38.7614 12.2067C40.0968 12.5551 41.1986 13.2873 42.1682 14.218C44.4114 16.3618 45.9319 18.9422 46.7252 21.9416C46.9676 22.8635 47.1086 23.8075 47.1307 24.8661H47.1351Z" fill="#E32126"/>
<path d="M30.996 33.013C31.0224 33.829 30.8549 34.5965 30.4891 35.3332C29.8633 36.6035 28.5235 37.2431 27.1573 36.9211C25.747 36.5859 24.5571 35.8625 23.4949 34.9053C21.6836 33.2732 20.3217 31.3148 19.3566 29.0828C18.7308 27.6405 18.3561 26.1231 18.3033 24.5395C18.2812 23.825 18.3826 23.1325 18.6162 22.4576C18.7925 21.9459 19.0789 21.5048 19.48 21.1299C20.3614 20.3094 21.4015 20.3006 22.4857 20.5256C23.301 20.6976 24.0018 21.1387 24.6805 21.5974C26.5491 22.8678 27.9242 24.5837 29.0436 26.5157C29.8898 27.9757 30.5024 29.5328 30.8285 31.1913C30.9475 31.7912 31.0312 32.3955 31.0004 33.0086L30.996 33.013Z" fill="#E32126"/>
<path d="M26.104 49.8184C26.126 50.8241 26.0247 51.8033 25.4429 52.6635C24.9361 53.4133 24.2706 53.8588 23.3319 53.9338C22.0009 54.0441 20.9123 53.4795 19.8854 52.7737C17.8449 51.3667 16.4126 49.4347 15.2799 47.2556C14.4426 45.6456 13.9181 43.9562 13.7374 42.1478C13.6449 41.217 13.7374 40.3084 14.0503 39.4438C14.5395 38.1073 15.6413 37.2516 17.3293 37.481C18.8145 37.6795 20 38.4822 21.0666 39.4438C23.3936 41.5434 24.9008 44.1591 25.7646 47.1586C26.0158 48.0276 26.1084 48.9142 26.0996 49.8184H26.104Z" fill="#E32126"/>
<path d="M155.627 78.0442C150.986 78.0442 146.693 77.203 142.748 75.5207C138.862 73.8385 135.439 71.4891 132.481 68.4725C129.58 65.456 127.318 61.9174 125.693 57.8567C124.069 53.796 123.257 49.3583 123.257 44.5435C123.257 39.7286 124.04 35.2909 125.606 31.2302C127.231 27.1115 129.493 23.5729 132.394 20.6144C135.352 17.5979 138.804 15.2775 142.748 13.6532C146.693 11.9709 150.986 11.1298 155.627 11.1298C160.267 11.1298 164.415 11.9129 168.07 13.4792C171.782 15.0454 174.915 17.1338 177.467 19.7442C180.02 22.2967 181.847 25.1101 182.949 28.1847L172.333 33.1445C171.115 29.896 169.056 27.2275 166.155 25.1392C163.255 22.9928 159.745 21.9196 155.627 21.9196C151.566 21.9196 147.969 22.8768 144.837 24.7911C141.762 26.7054 139.355 29.3449 137.614 32.7094C135.932 36.074 135.091 40.0187 135.091 44.5435C135.091 49.0682 135.932 53.0419 137.614 56.4645C139.355 59.8291 141.762 62.4685 144.837 64.3828C147.969 66.2972 151.566 67.2543 155.627 67.2543C159.745 67.2543 163.255 66.2102 166.155 64.1218C169.056 61.9754 171.115 59.278 172.333 56.0294L182.949 60.9893C181.847 64.0638 180.02 66.9063 177.467 69.5167C174.915 72.0692 171.782 74.1285 168.07 75.6948C164.415 77.261 160.267 78.0442 155.627 78.0442ZM213.896 78.0442C209.255 78.0442 205.02 76.971 201.192 74.8246C197.421 72.6783 194.405 69.7488 192.142 66.0361C189.938 62.3235 188.836 58.0888 188.836 53.332C188.836 48.5752 189.938 44.3404 192.142 40.6278C194.405 36.9152 197.421 33.9857 201.192 31.8393C204.962 29.6929 209.197 28.6197 213.896 28.6197C218.537 28.6197 222.742 29.6929 226.513 31.8393C230.284 33.9857 233.271 36.9152 235.476 40.6278C237.738 44.2824 238.869 48.5171 238.869 53.332C238.869 58.0888 237.738 62.3235 235.476 66.0361C233.213 69.7488 230.197 72.6783 226.426 74.8246C222.655 76.971 218.479 78.0442 213.896 78.0442ZM213.896 67.6024C216.448 67.6024 218.682 66.9933 220.596 65.7751C222.568 64.5569 224.106 62.8746 225.208 60.7282C226.368 58.5238 226.948 56.0584 226.948 53.332C226.948 50.5475 226.368 48.1111 225.208 46.0227C224.106 43.8764 222.568 42.1941 220.596 40.9759C218.682 39.6996 216.448 39.0615 213.896 39.0615C211.285 39.0615 208.994 39.6996 207.022 40.9759C205.049 42.1941 203.483 43.8764 202.323 46.0227C201.221 48.1111 200.67 50.5475 200.67 53.332C200.67 56.0584 201.221 58.5238 202.323 60.7282C203.483 62.8746 205.049 64.5569 207.022 65.7751C208.994 66.9933 211.285 67.6024 213.896 67.6024ZM247.514 77V29.6639H258.216V40.6278L256.998 38.8005C257.868 35.3779 259.609 32.8255 262.219 31.1432C264.829 29.4609 267.904 28.6197 271.443 28.6197C275.329 28.6197 278.752 29.6349 281.71 31.6653C284.669 33.6956 286.583 36.3641 287.453 39.6706L284.234 39.9317C285.684 36.161 287.859 33.3476 290.76 31.4912C293.66 29.5769 296.996 28.6197 300.767 28.6197C304.131 28.6197 307.119 29.3739 309.729 30.8821C312.398 32.3904 314.486 34.5078 315.994 37.2342C317.502 39.9027 318.257 43.0062 318.257 46.5448V77H306.858V49.2423C306.858 47.1539 306.481 45.3556 305.726 43.8473C304.972 42.3391 303.928 41.1789 302.594 40.3667C301.26 39.4966 299.635 39.0615 297.721 39.0615C295.923 39.0615 294.327 39.4966 292.935 40.3667C291.543 41.1789 290.47 42.3391 289.716 43.8473C288.962 45.3556 288.585 47.1539 288.585 49.2423V77H277.186V49.2423C277.186 47.1539 276.808 45.3556 276.054 43.8473C275.3 42.3391 274.227 41.1789 272.835 40.3667C271.501 39.4966 269.905 39.0615 268.049 39.0615C266.251 39.0615 264.655 39.4966 263.263 40.3667C261.871 41.1789 260.798 42.3391 260.044 43.8473C259.29 45.3556 258.912 47.1539 258.912 49.2423V77H247.514ZM327.9 77V29.6639H338.603V40.6278L337.385 38.8005C338.255 35.3779 339.995 32.8255 342.606 31.1432C345.216 29.4609 348.291 28.6197 351.829 28.6197C355.716 28.6197 359.139 29.6349 362.097 31.6653C365.056 33.6956 366.97 36.3641 367.84 39.6706L364.621 39.9317C366.071 36.161 368.246 33.3476 371.147 31.4912C374.047 29.5769 377.383 28.6197 381.153 28.6197C384.518 28.6197 387.505 29.3739 390.116 30.8821C392.784 32.3904 394.873 34.5078 396.381 37.2342C397.889 39.9027 398.643 43.0062 398.643 46.5448V77H387.244V49.2423C387.244 47.1539 386.867 45.3556 386.113 43.8473C385.359 42.3391 384.315 41.1789 382.981 40.3667C381.646 39.4966 380.022 39.0615 378.108 39.0615C376.31 39.0615 374.714 39.4966 373.322 40.3667C371.93 41.1789 370.857 42.3391 370.102 43.8473C369.348 45.3556 368.971 47.1539 368.971 49.2423V77H357.572V49.2423C357.572 47.1539 357.195 45.3556 356.441 43.8473C355.687 42.3391 354.614 41.1789 353.222 40.3667C351.887 39.4966 350.292 39.0615 348.436 39.0615C346.637 39.0615 345.042 39.4966 343.65 40.3667C342.258 41.1789 341.185 42.3391 340.43 43.8473C339.676 45.3556 339.299 47.1539 339.299 49.2423V77H327.9ZM425.168 78.0442C421.513 78.0442 418.323 77.232 415.596 75.6078C412.928 73.9835 410.868 71.7211 409.418 68.8206C408.026 65.9201 407.33 62.5265 407.33 58.6399V29.6639H418.729V57.6827C418.729 59.655 419.106 61.3953 419.86 62.9036C420.672 64.3538 421.803 65.514 423.254 66.3842C424.762 67.1963 426.444 67.6024 428.3 67.6024C430.157 67.6024 431.81 67.1963 433.26 66.3842C434.711 65.514 435.842 64.3248 436.654 62.8166C437.466 61.3083 437.872 59.51 437.872 57.4217V29.6639H449.271V77H438.481V67.6894L439.438 69.3427C438.336 72.2432 436.509 74.4186 433.956 75.8688C431.462 77.3191 428.532 78.0442 425.168 78.0442ZM459.867 77V29.6639H470.57V38.9745L469.7 37.3212C470.802 34.4787 472.6 32.3324 475.095 30.8821C477.647 29.3739 480.606 28.6197 483.97 28.6197C487.451 28.6197 490.525 29.3739 493.194 30.8821C495.92 32.3904 498.038 34.5078 499.546 37.2342C501.054 39.9027 501.808 43.0062 501.808 46.5448V77H490.409V49.2423C490.409 47.1539 490.003 45.3556 489.191 43.8473C488.379 42.3391 487.248 41.1789 485.798 40.3667C484.405 39.4966 482.752 39.0615 480.838 39.0615C478.981 39.0615 477.328 39.4966 475.878 40.3667C474.428 41.1789 473.296 42.3391 472.484 43.8473C471.672 45.3556 471.266 47.1539 471.266 49.2423V77H459.867ZM511.447 77V29.6639H522.846V77H511.447ZM511.447 24.356V12.1739H522.846V24.356H511.447ZM554.951 77.5221C549.614 77.5221 545.466 76.0718 542.507 73.1713C539.607 70.2128 538.157 66.0651 538.157 60.7282V39.8447H529.977V29.6639H530.847C533.168 29.6639 534.966 29.0548 536.242 27.8366C537.519 26.6184 538.157 24.8491 538.157 22.5287V18.8741H549.556V29.6639H560.432V39.8447H549.556V60.1191C549.556 61.6854 549.817 63.0196 550.339 64.1218C550.919 65.224 551.789 66.0651 552.949 66.6452C554.167 67.2253 555.705 67.5154 557.561 67.5154C557.967 67.5154 558.431 67.4864 558.953 67.4284C559.533 67.3704 560.084 67.3123 560.606 67.2543V77C559.794 77.116 558.866 77.232 557.822 77.3481C556.778 77.4641 555.821 77.5221 554.951 77.5221ZM575.058 96.2303C573.782 96.2303 572.535 96.1143 571.317 95.8822C570.099 95.7082 568.996 95.3891 568.01 94.9251V85.3534C568.764 85.5275 569.664 85.7015 570.708 85.8755C571.81 86.0495 572.825 86.1366 573.753 86.1366C576.364 86.1366 578.249 85.5275 579.409 84.3092C580.627 83.091 581.701 81.4958 582.629 79.5234L585.761 72.2142L585.587 81.7858L564.965 29.6639H577.234L591.678 68.1245H587.328L601.685 29.6639H614.041L593.419 81.7858C592.2 84.8603 590.721 87.4708 588.981 89.6172C587.24 91.7635 585.21 93.3878 582.89 94.49C580.627 95.6502 578.017 96.2303 575.058 96.2303Z" fill="#2C2C2C"/>
</svg>
