<svg width="21" height="8" viewBox="0 0 21 8" fill="none" xmlns="http://www.w3.org/2000/svg">
<path d="M0 2V1.13549e-06C3.58149 0.00172 5.28827 1.95457 6.66007 3.52414C8.00649 5.06418 8.93667 6 10.4842 6C12.0334 6 12.9633 5.06445 14.3105 3.52441C15.6837 1.95419 17.3926 0 20.9779 0C20.9853 0 20.9926 8.25096e-06 21 2.47326e-05V2.00006C20.9927 2.00002 20.9853 2 20.9779 2C19.4288 2 18.4988 2.93555 17.1516 4.47559C15.7785 6.04581 14.0695 8 10.4842 8C6.89951 8 5.19183 6.04612 3.81942 4.47586C2.47438 2.93739 1.54472 2.00191 0 2Z" fill="#22C55E"/>
</svg>
